                Doctor Sleep (original title) 
                   AKA: Close Your Eyes
 
                   Swedish Hardsub    
 
http://www.imdb.com/title/tt0286594/                  



General
Complete name                       : Doctor.Sleep.2002.DVDRip.SweSub.Xvid.avi
Format                              : AVI
Format/Info                         : Audio Video Interleave
File size                           : 699 MiB
Duration                            : 1h 38mn

Video
ID                                  : 0
Format                              : MPEG-4 Visual
Format profile                      : Advanced Simple@L5
Format settings, BVOP               : 2
Format settings, QPel               : No
Format settings, GMC                : No warppoints
Format settings, Matrix             : Default (H.263)
Muxing mode                         : Packed bitstream
Codec ID                            : XVID
Codec ID/Hint                       : XviD
Duration                            : 1h 38mn
Bit rate                            : 846 Kbps
Width                               : 720 pixels
Height                              : 304 pixels
Display aspect ratio                : 2.35:1
Frame rate                          : 25.000 fps
Color space                         : YUV
Chroma subsampling                  : 4:2:0
Bit depth                           : 8 bits
Scan type                           : Progressive
Compression mode                    : Lossy
Bits/(Pixel*Frame)                  : 0.155
Stream size                         : 599 MiB (86%)
Writing library                     : XviD 73

Audio
ID                                  : 1
Format                              : MPEG Audio
Format version                      : Version 1
Format profile                      : Layer 3
Mode                                : Joint stereo
Codec ID                            : 55
Codec ID/Hint                       : MP3
Duration                            : 1h 38mn
Bit rate mode                       : Variable
Bit rate                            : 128 Kbps
Channel(s)                          : 2 channels
Sampling rate                       : 48.0 KHz
Compression mode                    : Lossy
Stream size                         : 91.3 MiB (13%)
Alignment                           : Aligned on interleaves
Interleave, duration                : 24 ms (0.60 video frame)
Interleave, preload duration        : 488 ms
Writing library                     : LAME3.90.
Encoding settings                   : -m j -V 4 -q 2 -lowpass 17.6 --abr 128

